<svg width="648" height="620" viewBox="0 0 648 620" fill="none" xmlns="http://www.w3.org/2000/svg">
<path fill-rule="evenodd" clip-rule="evenodd" d="M322.016 59.0503C375.271 63.8569 427.663 11.7288 477.295 31.6258C526.434 51.3251 540.644 113.269 568.914 158.03C598.36 204.652 644.42 245.501 647.162 300.576C649.925 356.069 610.815 403.16 583.53 451.561C555.987 500.418 533.865 555.439 486.529 585.52C438.549 616.011 378.583 623.401 322.016 617.749C268.143 612.367 219.185 586.352 175.448 554.44C134.653 524.674 107.575 482.554 79.341 440.685C49.203 395.992 13.2533 353.725 4.25777 300.576C-5.47223 243.088 1.24471 182.538 26.7772 130.12C53.1339 76.0094 91.1485 16.1411 149.665 2.05507C209.514 -12.3518 260.706 53.5167 322.016 59.0503Z" fill="#DCD6F7"/>
</svg>
